<?xml version="1.0" encoding="utf-8"?>
<!-- Generator: Adobe Illustrator 25.1.0, SVG Export Plug-In . SVG Version: 6.00 Build 0)  -->
<svg version="1.1" id="Layer_1" xmlns="http://www.w3.org/2000/svg" xmlns:xlink="http://www.w3.org/1999/xlink" x="0px" y="0px"
	 viewBox="0 0 384 288" style="enable-background:new 0 0 384 288;" xml:space="preserve">
<style type="text/css">
	.st0{fill:#FFFFFF;}
	.st1{fill-rule:evenodd;clip-rule:evenodd;fill:#009BD5;}
	.st2{fill-rule:evenodd;clip-rule:evenodd;fill:#00749F;}
</style>
<rect id="Rectangle_56" y="0" class="st0" width="384" height="288"/>
<g>
	<path class="st1" d="M64,173.7h12.4l4.5-12.6c0.4-1.2,0.8-2.4,1.2-3.6h0.4c-0.1,1.2-0.1,2.5,0,3.7l1.6,12.5h7.5l8.2-13.3
		c0.6-0.9,1.1-1.9,1.5-2.9h0.2l-2.2,16.2H112l1.2-29.6H100l-6.7,11.6c-0.7,1.3-1.3,2.6-1.8,3.9h-0.3l-1.2-15.6H76.7L64,173.7z"/>
	<path class="st1" d="M125.8,170l-1.9,3.7h-13.6l19.3-29.6h14.2l5.6,29.6h-13.5l-0.3-3.7H125.8z M129.7,163h5.2c0,0-0.3-7.8-0.2-9
		h-0.5L129.7,163z"/>
	<path class="st1" d="M149.1,173.7h12.3c0,0,2.8-13.5,2.9-15.5h0.4l7.6,15.5h12.3l7-29.6h-12.3c0,0-2.6,13.9-2.8,16.4h-0.4
		l-7.7-16.4h-12.3L149.1,173.7z"/>
	<path class="st1" d="M199.7,170l-1.9,3.7h-13.6l19.3-29.6h14.2l5.6,29.6h-13.6l-0.3-3.7H199.7z M203.7,163h5.2c0,0-0.3-7.8-0.2-9
		h-0.5L203.7,163z"/>
	<path class="st1" d="M243.7,156.3h17.9c-1.2,4.8-2.2,8.9-7.3,12.6c-4.7,3.4-10.4,5.2-16.3,5.3c-10.8,0-18.2-5.6-16-15.1
		c2.2-9.5,12.1-15.5,23.3-15.5c6.2,0,14,2.5,15.6,7.6L248,155c-0.8-1.6-2.6-2.5-4.4-2.3c-4.1,0-7.7,2.9-8.7,6.9
		c-0.8,3.3,0.9,6.3,5.1,6.3c2,0,4.8-0.8,5.8-2.6h-5.2L243.7,156.3z"/>
	<path class="st1" d="M258.2,173.7h24.2l1.9-8.1h-11.2l0.7-2.9h9.9l1.8-7.7h-9.9l0.7-2.8h10.9l1.9-8.1h-23.8L258.2,173.7z"/>
	<path class="st1" d="M284.9,173.7l7-29.6h15.5c8,0,14.1,2.8,12.3,10.3c-1.1,4.5-3.6,6.4-8.7,7.7v0.2c0.6,0.4,7.2,11.4,7.2,11.4
		h-14.8l-3.4-9.5h-0.2l-2.3,9.5H284.9z M302.5,152.2l-1.2,5h0.9c2.1,0,4.4-0.3,4.8-2.5s-1.3-2.5-3.5-2.5H302.5z"/>
	<path class="st2" d="M65,144.5h13l2.4-10.4h9.4l1.8-7.7h-9.4l0.7-3.1h10.8l3.8-8.5H71.9L65,144.5z"/>
	<path class="st2" d="M113.5,124.2c4.1,0,6,2.6,5.2,5.8c-1,3.5-4.3,5.9-8,5.7c-3.9,0-6.1-2.3-5.3-5.7
		C106.5,126.5,109.8,124.1,113.5,124.2 M115.8,114.5c-10.8,0-21,6-23.3,15.3c-2.3,9.3,5.2,15.2,16,15.2s20.9-5.7,23.2-15.2
		s-5.2-15.3-16-15.3"/>
	<path class="st2" d="M153.1,124.2c4.1,0,6,2.6,5.3,5.8c-1.1,3.5-4.3,5.8-8,5.6c-3.9,0-6.1-2.3-5.3-5.7c1-3.5,4.3-5.9,8-5.8
		 M155.4,114.4c-10.7,0-21,6-23.3,15.3c-2.3,9.3,5.2,15.2,16,15.2c10.8,0,20.9-5.7,23.2-15.2s-5.2-15.3-16-15.3"/>
	<path class="st2" d="M171.9,124.5h7.1l-4.8,20h12.9l4.8-20h7l4-9.6h-28.8L171.9,124.5z"/>
	<path class="st2" d="M212.1,132.5h1.3c2.1,0,5.4,0,4.8,2.4c-0.6,2.4-3.6,2.5-5.8,2.5h-1.5L212.1,132.5z M213.5,126.2l1-4.2h0.9
		c1.9,0,4.4-0.2,3.8,2c-0.6,2.2-2.6,2.2-4.5,2.2H213.5z M197.3,144.5h17.5c6.2,0,13.4-2.1,14.9-8.2c0.8-3.6-1-5.9-4.6-7.1V129
		c3-0.7,5.3-3,6-5.9c1.6-6.8-5.1-8.2-11.9-8.2h-15L197.3,144.5z"/>
	<path class="st2" d="M241.5,140.8l-1.9,3.7h-13.6l19.3-29.6h14.3l5.6,29.6h-13.6l-0.3-3.7H241.5z M245.4,133.8h5.2
		c0,0-0.3-7.8-0.2-9h-0.5L245.4,133.8z"/>
	<path class="st2" d="M265,144.5h23.6l2.2-9.5H280l4.7-20.1h-12.9L265,144.5z"/>
	<path class="st2" d="M290.2,144.5h23.6l2.2-9.5h-10.8l4.7-20.1h-12.9L290.2,144.5z"/>
</g>
</svg>
