<svg xmlns="http://www.w3.org/2000/svg" width="512" height="512" viewBox="0 0 512 512">
  <path d="M256 0C114.6 0 0 114.6 0 256s114.6 256 256 256 
           256-114.6 256-256S397.4 0 256 0zm142.6 369.1l-53.1-25.1-24.6-48.3 
           7.3-58.1 35.6-46.4 57.2-7.3c17.2 28.6 27.1 62.2 27.1 98.1 
           0 35.4-9.5 68.6-26.4 96.9zM256 460c-41.4 0-79.7-13.6-110.6-36.5l9.4-58.2 
           41.2-33.1h120l41.2 33.1 9.4 58.2C335.7 446.4 297.4 460 256 460zM94.4 
           369.1c-16.9-28.3-26.4-61.5-26.4-96.9 0-35.9 9.9-69.5 27.1-98.1l57.2 
           7.3 35.6 46.4 7.3 58.1-24.6 48.3-53.1 25.1zM168.4 93.4L256 
           52l87.6 41.4 10.1 56.5-36.9 46.7h-121l-36.9-46.7 10.1-56.5z" fill="#000"></path>
</svg>
